<svg width="150" height="102" viewBox="0 0 150 102" fill="none" xmlns="http://www.w3.org/2000/svg">
<path d="M0 16.5746C0 7.4207 7.4207 0 16.5746 0H83.7017C92.8555 0 100.276 7.4207 100.276 16.5746V85.3591C100.276 94.513 92.8555 101.934 83.7017 101.934H16.5746C7.4207 101.934 0 94.513 0 85.3591V16.5746Z" fill="white"/>
<path fill-rule="evenodd" clip-rule="evenodd" d="M83.7017 4.14365H16.5746C9.70917 4.14365 4.14365 9.70917 4.14365 16.5746V85.3591C4.14365 92.2245 9.70917 97.7901 16.5746 97.7901H83.7017C90.5671 97.7901 96.1326 92.2245 96.1326 85.3591V16.5746C96.1326 9.70917 90.5671 4.14365 83.7017 4.14365ZM16.5746 0C7.42069 0 0 7.4207 0 16.5746V85.3591C0 94.513 7.4207 101.934 16.5746 101.934H83.7017C92.8555 101.934 100.276 94.513 100.276 85.3591V16.5746C100.276 7.42069 92.8555 0 83.7017 0H16.5746Z" fill="white"/>
<path d="M14.1532 75.4142V28.2803H28.656C32.7996 28.2803 36.5008 29.2191 39.7596 31.0966C43.04 32.9527 45.5974 35.6072 47.4319 39.0602C49.2663 42.4917 50.1835 46.3979 50.1835 50.779V52.9479C50.1835 57.3289 49.2771 61.2244 47.4642 64.6343C45.673 68.0442 43.1371 70.6879 39.8568 72.5655C36.5764 74.4431 32.8751 75.3927 28.7531 75.4142H14.1532ZM23.8649 36.1467V67.6125H28.5588C32.3572 67.6125 35.2599 66.3716 37.267 63.8897C39.2741 61.4078 40.2992 57.8577 40.3423 53.2393V50.7466C40.3423 45.9555 39.3496 42.3298 37.3641 39.8695C35.3786 37.3876 32.4759 36.1467 28.656 36.1467H23.8649Z" fill="#8615DF"/>
<path d="M86.0455 52.9155C86.0455 57.5555 85.2254 61.6237 83.5852 65.1199C81.945 68.6161 79.5926 71.3138 76.528 73.2129C73.485 75.1121 69.9888 76.0617 66.0394 76.0617C62.1332 76.0617 58.6478 75.1229 55.5832 73.2453C52.5186 71.3677 50.1447 68.6916 48.4613 65.217C46.7779 61.7208 45.9255 57.7066 45.9039 53.1745V50.8437C45.9039 46.2037 46.7348 42.1248 48.3965 38.607C50.0799 35.0676 52.4431 32.3592 55.4861 30.4816C58.5506 28.5824 62.0468 27.6328 65.9747 27.6328C69.9025 27.6328 73.3879 28.5824 76.4309 30.4816C79.4955 32.3592 81.8587 35.0676 83.5204 38.607C85.2038 42.1248 86.0455 46.1929 86.0455 50.8113V52.9155ZM76.2043 50.779C76.2043 45.8368 75.3195 42.0816 73.5498 39.5134C71.7801 36.9452 69.2551 35.6611 65.9747 35.6611C62.7159 35.6611 60.2016 36.9344 58.4319 39.4811C56.6623 42.0061 55.7666 45.7181 55.745 50.6171V52.9155C55.745 57.7282 56.6299 61.4618 58.3996 64.1163C60.1693 66.7708 62.7159 68.0981 66.0394 68.0981C69.2982 68.0981 71.8017 66.8248 73.5498 64.2782C75.2979 61.71 76.1827 57.9764 76.2043 53.0774V50.779Z" fill="#8615DF"/>
<path d="M112.678 46.2986V48.9046H118.635V61.2222H112.678V63.812H127.343V61.2222H121.629V46.2986H112.678ZM118.246 41.7018C118.246 42.1874 118.392 42.592 118.683 42.9157C118.985 43.2395 119.439 43.4013 120.043 43.4013C120.636 43.4013 121.084 43.2395 121.386 42.9157C121.688 42.592 121.839 42.1874 121.839 41.7018C121.839 41.432 121.796 41.1838 121.71 40.9572C121.624 40.7306 121.494 40.5418 121.321 40.3907C121.181 40.2504 121.003 40.1425 120.787 40.067C120.572 39.9807 120.323 39.9375 120.043 39.9375C119.762 39.9375 119.509 39.9807 119.282 40.067C119.066 40.1425 118.888 40.2504 118.748 40.3907C118.575 40.5526 118.446 40.7468 118.359 40.9734C118.284 41.2 118.246 41.4428 118.246 41.7018Z" fill="white"/>
<path d="M139.207 42.0579H136.197V46.2986H131.6V48.6133H136.197V58.1307C136.197 59.2098 136.337 60.1324 136.617 60.8985C136.909 61.6539 137.303 62.2689 137.799 62.7437C138.295 63.2293 138.878 63.5854 139.547 63.812C140.227 64.0278 140.955 64.1357 141.732 64.1357C142.196 64.1357 142.66 64.1142 143.124 64.071C143.599 64.0278 144.047 63.9631 144.468 63.8768C144.888 63.8012 145.277 63.7095 145.633 63.6016C145.989 63.4829 146.291 63.348 146.539 63.197L146.119 61.0766C145.935 61.1197 145.698 61.1737 145.406 61.2384C145.126 61.2924 144.824 61.3463 144.5 61.4003C144.165 61.4542 143.826 61.5028 143.48 61.546C143.135 61.5783 142.8 61.5945 142.477 61.5945C142.034 61.5945 141.613 61.5406 141.214 61.4327C140.826 61.3248 140.48 61.1359 140.178 60.8662C139.876 60.6072 139.639 60.2565 139.466 59.8141C139.293 59.3716 139.207 58.8105 139.207 58.1307V48.6133H145.876V46.2986H139.207V42.0579Z" fill="white"/>
<path d="M122.652 75.8286C122.652 77.8883 120.982 79.5579 118.923 79.5579C116.863 79.5579 115.193 77.8883 115.193 75.8286C115.193 73.769 116.863 72.0994 118.923 72.0994C120.982 72.0994 122.652 73.769 122.652 75.8286Z" fill="white"/>
<path d="M145.028 75.8286C145.028 77.8883 143.358 79.5579 141.298 79.5579C139.239 79.5579 137.569 77.8883 137.569 75.8286C137.569 73.769 139.239 72.0994 141.298 72.0994C143.358 72.0994 145.028 73.769 145.028 75.8286Z" fill="white"/>
</svg>
